<svg width="16" height="19" viewBox="0 0 16 19" fill="none" xmlns="http://www.w3.org/2000/svg">
<path d="M12.2427 13.1048L8 17.8737L3.75734 13.1048C2.91823 12.1616 2.34679 10.9599 2.11529 9.65168C1.88378 8.34344 2.0026 6.98741 2.45673 5.75508C2.91086 4.52274 3.6799 3.46945 4.66659 2.72839C5.65328 1.98733 6.81332 1.5918 8 1.5918C9.18669 1.5918 10.3467 1.98733 11.3334 2.72839C12.3201 3.46945 13.0891 4.52274 13.5433 5.75508C13.9974 6.98741 14.1162 8.34344 13.8847 9.65168C13.6532 10.9599 13.0818 12.1616 12.2427 13.1048V13.1048ZM8 9.83463C8.35362 9.83463 8.69276 9.67673 8.94281 9.39567C9.19286 9.11461 9.33334 8.73341 9.33334 8.33592C9.33334 7.93844 9.19286 7.55724 8.94281 7.27618C8.69276 6.99512 8.35362 6.83722 8 6.83722C7.64638 6.83722 7.30724 6.99512 7.05719 7.27618C6.80714 7.55724 6.66667 7.93844 6.66667 8.33592C6.66667 8.73341 6.80714 9.11461 7.05719 9.39567C7.30724 9.67673 7.64638 9.83463 8 9.83463Z" fill="#FF7129"/>
</svg>
